<svg width="160" height="29" viewBox="0 0 160 29" fill="none" xmlns="http://www.w3.org/2000/svg">
<path d="M5.58914 8.83985H0V5.59375H15.2225V8.83985H9.63237V22.8178H5.58914V8.83985Z" fill="#343A40"/>
<path d="M18.5435 14.2051C18.5435 9.08708 22.5867 5.29688 28.0997 5.29688C33.6138 5.29688 37.658 9.07062 37.658 14.2051C37.658 19.3407 33.5901 23.1134 28.0997 23.1134C22.6093 23.1134 18.5435 19.3294 18.5435 14.2051ZM33.5654 14.2051C33.5654 10.9323 31.2193 8.69315 28.0997 8.69315C24.9801 8.69315 22.634 10.9323 22.634 14.2051C22.634 17.478 24.9801 19.7182 28.0997 19.7182C31.2193 19.7182 33.5654 17.478 33.5654 14.2051Z" fill="#343A40"/>
<path d="M58.3477 11.8419C58.3477 15.6815 55.4276 18.0687 50.7611 18.0687H47.2424V22.8258H43.1992V5.59962H50.7611C55.4276 5.59345 58.3477 7.97866 58.3477 11.8419ZM54.2551 11.8419C54.2551 9.9473 53.0075 8.83955 50.5369 8.83955H47.2424V14.8195H50.5369C53.0075 14.8195 54.2551 13.7128 54.2551 11.8419Z" fill="#343A40"/>
<path d="M62.5903 21.1201L63.9624 18.1177C65.4353 19.1761 67.6313 19.9146 69.7274 19.9146C72.124 19.9146 73.097 19.1268 73.097 18.0694C73.097 14.8449 62.94 17.0604 62.94 10.6618C62.94 7.73351 65.3355 5.29688 70.3024 5.29688C72.4983 5.29688 74.7447 5.81424 76.3667 6.82221L75.1191 9.84924C73.496 8.93897 71.8246 8.50081 70.2767 8.50081C67.8812 8.50081 66.9493 9.38742 66.9493 10.4695C66.9493 13.6446 77.1073 11.4538 77.1073 17.7783C77.1073 20.6572 74.6861 23.1186 69.6945 23.1186C66.9329 23.1134 64.1373 22.3019 62.5903 21.1201Z" fill="#343A40"/>
<path d="M95.9073 19.6192V22.8179H82.3809V5.5918H95.5833V8.79161H86.3994V12.5314H94.5095V15.6325H86.3994V19.6192H95.9073Z" fill="#343A40"/>
<path d="M138.812 19.4512V22.65H125.286V5.42383H138.487V8.62365H129.303V12.3635H137.414V15.4645H129.303V19.4512H138.812Z" fill="#343A40"/>
<path d="M155.657 22.6492L152.288 17.8479H148.57V22.6461H144.526V5.41992H152.088C156.755 5.41992 159.675 7.80513 159.675 11.6694C159.675 14.2531 158.344 16.1477 156.081 17.1073L160 22.644L155.657 22.6492ZM151.857 8.67117H148.562V14.6758H151.857C154.327 14.6758 155.576 13.5444 155.576 11.6735C155.582 9.77891 154.335 8.67117 151.857 8.67117Z" fill="#343A40"/>
<path d="M115.196 2.49878L112.017 19.0773C111.655 20.9686 112.34 22.7223 114.266 22.7223C115.736 22.7223 117.763 21.6798 118.041 20.2367L121.243 3.66236C121.609 1.76304 119.15 0 117.215 0C115.739 0 115.474 1.04852 115.196 2.49878Z" fill="url(#paint0_linear)"/>
<path d="M103.94 7.91871L100.76 24.4973C100.398 26.3885 101.083 28.1423 103.009 28.1423C104.479 28.1423 106.506 27.0997 106.785 25.6566L109.986 9.08228C110.353 7.18296 107.893 5.41992 105.959 5.41992C104.482 5.41992 104.218 6.46844 103.94 7.91871Z" fill="url(#paint1_linear)"/>
<defs>
<linearGradient id="paint0_linear" x1="116.634" y1="0" x2="116.634" y2="22.7223" gradientUnits="userSpaceOnUse">
<stop stop-color="#4CCEAC"/>
<stop offset="1" stop-color="#4CCEAC" stop-opacity="0"/>
</linearGradient>
<linearGradient id="paint1_linear" x1="105.377" y1="5.41992" x2="105.377" y2="28.1423" gradientUnits="userSpaceOnUse">
<stop stop-color="#4CCEAC"/>
<stop offset="1" stop-color="#4CCEAC" stop-opacity="0"/>
</linearGradient>
</defs>
</svg>
